<svg width="59" height="59" viewBox="0 0 59 59" fill="none" xmlns="http://www.w3.org/2000/svg">
<g id="Group 3">
<rect id="Rectangle 1" width="58.9681" height="58.9681" rx="7.37101" fill="#8170F2"/>
<g id="Group 1">
<path id="Vector" d="M40.3514 33.1557H35.4865C35.1917 33.1557 34.9951 33.3522 34.9951 33.6471C34.9951 33.9419 35.1917 34.1385 35.4865 34.1385H40.3514C40.6462 34.1385 40.8428 33.9419 40.8428 33.6471C40.8428 33.3522 40.5971 33.1557 40.3514 33.1557Z" fill="white"/>
<path id="Vector_2" d="M17.1572 35.5144C17.4521 35.5144 17.6486 35.3178 17.6486 35.023V23.7699C17.6486 23.4751 17.4521 23.2785 17.1572 23.2785C16.8624 23.2785 16.6658 23.4751 16.6658 23.7699V35.023C16.6658 35.2687 16.8624 35.5144 17.1572 35.5144Z" fill="white"/>
<path id="Vector_3" d="M14.602 48.2908C14.8968 48.5365 15.2408 48.6839 15.6339 48.6839H18.6806C19.516 48.6839 20.2039 47.996 20.2039 47.1606V16.4972L24.5774 47.3571C24.6265 47.7503 24.8231 48.1434 25.1671 48.3891C25.4128 48.5856 25.7568 48.6839 26.1007 48.6839C26.1499 48.6839 26.2482 48.6839 26.2973 48.6839L29.344 48.2417C29.7371 48.1925 30.1302 47.996 30.3759 47.652C30.6216 47.308 30.7199 46.9149 30.6708 46.5218L25.6585 11.3375C25.5602 10.5021 24.774 9.91242 23.9386 10.0107L20.8919 10.453C20.5479 10.5021 20.2531 10.6495 20.0074 10.8952C19.7617 10.4038 19.2211 10.0598 18.6806 10.0598H15.6339C15.2408 10.0598 14.8968 10.2073 14.602 10.453C14.3071 10.2073 13.9631 10.0598 13.57 10.0598H10.5233C9.68796 10.0598 9 10.7478 9 11.5832V47.1114C9 47.9468 9.68796 48.6348 10.5233 48.6348H13.57C13.9631 48.6839 14.3563 48.5365 14.602 48.2908ZM29.688 46.6692C29.688 46.8166 29.688 46.964 29.5897 47.0623C29.4914 47.1606 29.3931 47.2589 29.2457 47.2589L26.199 47.7011C26.0516 47.7011 25.9042 47.7011 25.8059 47.6028C25.7076 47.5046 25.6093 47.4063 25.6093 47.2589L25.1671 44.3105L29.2948 43.7208L29.688 46.6692ZM29.1474 42.738L25.0197 43.3277L24.7248 41.2146L28.8526 40.6249L29.1474 42.738ZM25.7076 18.5119L28.7052 39.593L24.5774 40.1827L21.5799 19.1016L25.7076 18.5119ZM25.5602 17.5783L21.4324 18.1679L21.1376 16.0549L25.2654 15.4652L25.5602 17.5783ZM21.0393 11.4358L24.086 10.9935C24.1351 10.9935 24.1351 10.9935 24.1843 10.9935C24.43 10.9935 24.6757 11.1901 24.7248 11.4849L25.1671 14.4824L21.0393 15.0721L20.5479 12.0746C20.5479 11.7797 20.7445 11.4849 21.0393 11.4358ZM19.2211 43.1802H15.1425V41.0181H19.2211V43.1802ZM19.2211 40.0844H15.1425V18.7576H19.2211V40.0844ZM19.2211 17.7748H15.1425V15.6127H19.2211V17.7748ZM15.6339 11.0918H18.6806C18.9754 11.0918 19.2211 11.3375 19.2211 11.6323V14.6299H15.1425V11.6323C15.1425 11.5832 15.1425 11.534 15.1425 11.4358C15.1916 11.2392 15.3882 11.0918 15.6339 11.0918ZM15.1425 47.1606V44.2122H19.2211V47.1606C19.2211 47.4554 18.9754 47.7011 18.6806 47.7011H15.6339C15.3882 47.7011 15.1916 47.5537 15.1425 47.308C15.0934 47.2589 15.1425 47.2097 15.1425 47.1606ZM9.9828 11.6323C9.9828 11.3375 10.2285 11.0918 10.5233 11.0918H13.57C13.8157 11.0918 14.0123 11.2392 14.0614 11.4849C14.0614 11.534 14.0614 11.5832 14.0614 11.6815V14.6299H9.9828V11.6323ZM9.9828 15.6127H14.0614V17.7748H9.9828V15.6127ZM9.9828 18.7576H14.0614V40.0844H9.9828V18.7576ZM9.9828 41.0672H14.0614V43.2294H9.9828V41.0672ZM9.9828 47.1606V44.2122H14.0614V47.1606C14.0614 47.2097 14.0614 47.2589 14.0614 47.3571C13.9631 47.5537 13.7666 47.7503 13.57 47.7503H10.5233C10.2285 47.7011 9.9828 47.4554 9.9828 47.1606Z" fill="white"/>
<path id="Vector_4" d="M25.4128 34.9738C25.4619 35.2195 25.6585 35.4161 25.9042 35.4161H25.9533C26.199 35.367 26.3956 35.1213 26.3464 34.8756L24.7739 23.7208C24.7248 23.4751 24.4791 23.2785 24.2334 23.3276C23.9877 23.3768 23.7911 23.6225 23.8403 23.8682L25.4128 34.9738Z" fill="white"/>
<path id="Vector_5" d="M12.0467 23.2785C11.7519 23.2785 11.5553 23.4751 11.5553 23.7699V35.023C11.5553 35.3178 11.7519 35.5144 12.0467 35.5144C12.3415 35.5144 12.5381 35.3178 12.5381 35.023V23.7699C12.5381 23.4751 12.3415 23.2785 12.0467 23.2785Z" fill="white"/>
<path id="Vector_6" d="M47.8206 10.1089H44.774C44.3808 10.1089 43.9877 10.2564 43.6929 10.5512C43.398 10.3055 43.0541 10.1089 42.6118 10.1089H33.1769C32.3415 10.1089 31.6536 10.7969 31.6536 11.6323V47.1605C31.6536 47.9959 32.3415 48.6839 33.1769 48.6839H42.6118C43.0049 48.6839 43.398 48.5365 43.6929 48.2416C43.9877 48.4873 44.3317 48.6839 44.774 48.6839H47.8206C48.656 48.6839 49.344 47.9959 49.344 47.1605V11.6323C49.344 10.7969 48.656 10.1089 47.8206 10.1089ZM43.2015 47.1605C43.2015 47.4554 42.9558 47.7011 42.6609 47.7011H33.1769C32.8821 47.7011 32.6364 47.4554 32.6364 47.1605V44.2121H43.2015V47.1605ZM43.2015 43.1802H32.6364V41.018H43.2015V43.1802ZM43.2015 40.0844H32.6364V18.7576H43.2015V40.0844ZM43.2015 17.7748H32.6364V15.6126H43.2015V17.7748ZM43.2015 14.6298H32.6364V11.6323C32.6364 11.3374 32.8821 11.0917 33.1769 11.0917H42.6118C42.9066 11.0917 43.1523 11.3374 43.1523 11.6323V14.6298H43.2015ZM48.3612 47.1605C48.3612 47.4554 48.1155 47.7011 47.8206 47.7011H44.774C44.4791 47.7011 44.2334 47.4554 44.2334 47.1605V44.2121H48.4103V47.1605H48.3612ZM48.3612 43.1802H44.1843V41.018H48.3612V43.1802ZM48.3612 40.0844H44.1843V18.7576H48.3612V40.0844ZM48.3612 17.7748H44.1843V15.6126H48.3612V17.7748ZM48.3612 14.6298H44.1843V11.6323C44.1843 11.3374 44.43 11.0917 44.7248 11.0917H47.7715C48.0663 11.0917 48.312 11.3374 48.312 11.6323V14.6298H48.3612Z" fill="white"/>
<path id="Vector_7" d="M46.2973 35.5144C46.5921 35.5144 46.7887 35.3178 46.7887 35.023V23.7699C46.7887 23.4751 46.5921 23.2785 46.2973 23.2785C46.0025 23.2785 45.8059 23.4751 45.8059 23.7699V35.023C45.8059 35.2687 46.0025 35.5144 46.2973 35.5144Z" fill="white"/>
<path id="Vector_8" d="M37.8944 31.7797C39.86 31.7797 41.4816 30.1581 41.4816 28.1925C41.4816 26.2269 39.86 24.6053 37.8944 24.6053C35.9288 24.6053 34.3071 26.2269 34.3071 28.1925C34.3071 30.1581 35.9288 31.7797 37.8944 31.7797ZM37.8944 25.5881C39.3194 25.5881 40.4988 26.7674 40.4988 28.1925C40.4988 29.6176 39.3194 30.7969 37.8944 30.7969C36.4693 30.7969 35.2899 29.6176 35.2899 28.1925C35.2899 26.7674 36.4693 25.5881 37.8944 25.5881Z" fill="white"/>
</g>
</g>
</svg>
